<?xml version="1.0" encoding="UTF-8"?><svg id="Layer_2" xmlns="http://www.w3.org/2000/svg" viewBox="0 0 3840 3840"><defs><style>.cls-1{fill:#fff;}</style></defs><g id="Layer_1-2"><path class="cls-1" d="m1920,20c128.93,0,257.76,12.99,382.94,38.6,121.98,24.96,241.97,62.21,356.62,110.7,112.58,47.62,221.16,106.55,322.73,175.18,100.61,67.97,195.22,146.03,281.21,232.02,85.98,85.98,164.05,180.6,232.02,281.21,68.62,101.57,127.56,210.16,175.18,322.73,48.5,114.66,85.74,234.64,110.7,356.62,25.61,125.17,38.6,254.01,38.6,382.94s-12.99,257.76-38.6,382.94c-24.96,121.98-62.21,241.97-110.7,356.62-47.62,112.58-106.55,221.16-175.18,322.73-67.97,100.61-146.03,195.22-232.02,281.21-85.98,85.98-180.6,164.05-281.21,232.02-101.57,68.62-210.16,127.56-322.73,175.18-114.66,48.5-234.64,85.74-356.62,110.7-125.17,25.61-254.01,38.6-382.94,38.6s-257.76-12.99-382.94-38.6c-121.98-24.96-241.97-62.21-356.62-110.7-112.58-47.62-221.16-106.55-322.73-175.18-100.61-67.97-195.22-146.03-281.21-232.02-85.98-85.98-164.05-180.6-232.02-281.21-68.62-101.57-127.56-210.16-175.18-322.73-48.5-114.66-85.74-234.64-110.7-356.62-25.61-125.17-38.6-254.01-38.6-382.94s12.99-257.76,38.6-382.94c24.96-121.98,62.21-241.97,110.7-356.62,47.62-112.58,106.55-221.16,175.18-322.73,67.97-100.61,146.03-195.22,232.02-281.21,85.98-85.98,180.6-164.05,281.21-232.02,101.57-68.62,210.16-127.56,322.73-175.18,114.66-48.5,234.64-85.74,356.62-110.7,125.17-25.61,254.01-38.6,382.94-38.6m0-20C859.61,0,0,859.61,0,1920s859.61,1920,1920,1920,1920-859.61,1920-1920S2980.39,0,1920,0h0Z"/></g></svg>